<mxfile host="app.diagrams.net" modified="2022-06-07T13:43:40.218Z" agent="5.0 (Windows)" etag="XiJaaVAjwbNMDYAhgLvA" version="19.0.2" type="github">
  <diagram id="ftHDJsCwS-N9WV5DZKyB" name="Page-1">
    <mxGraphModel dx="827" dy="446" grid="0" gridSize="10" guides="1" tooltips="1" connect="1" arrows="1" fold="1" page="1" pageScale="1" pageWidth="850" pageHeight="1100" math="0" shadow="0">
      <root>
        <mxCell id="0" />
        <mxCell id="1" parent="0" />
        <mxCell id="4s9nhKdhcSExY_lbLFu8-13" value="" style="rounded=0;whiteSpace=wrap;html=1;strokeWidth=1;" parent="1" vertex="1">
          <mxGeometry x="162" y="44" width="568" height="798" as="geometry" />
        </mxCell>
        <mxCell id="4s9nhKdhcSExY_lbLFu8-15" value="" style="rounded=0;orthogonalLoop=1;jettySize=auto;html=1;endArrow=open;endFill=0;strokeWidth=1;fillColor=#dae8fc;strokeColor=#6c8ebf;exitX=1;exitY=0.3333333333333333;exitDx=0;exitDy=0;exitPerimeter=0;" parent="1" source="4s9nhKdhcSExY_lbLFu8-16" edge="1">
          <mxGeometry relative="1" as="geometry">
            <mxPoint x="118" y="123.969696969697" as="sourcePoint" />
            <mxPoint x="208.6647544613736" y="110.232612960398" as="targetPoint" />
          </mxGeometry>
        </mxCell>
        <mxCell id="4s9nhKdhcSExY_lbLFu8-16" value="Receptionist" style="shape=umlActor;verticalLabelPosition=bottom;verticalAlign=top;html=1;outlineConnect=0;strokeWidth=2;fillColor=#dae8fc;strokeColor=#6c8ebf;" parent="1" vertex="1">
          <mxGeometry x="64" y="101" width="40" height="80" as="geometry" />
        </mxCell>
        <mxCell id="4s9nhKdhcSExY_lbLFu8-18" value="update client data" style="ellipse;whiteSpace=wrap;html=1;verticalAlign=top;strokeWidth=2;fillColor=#dae8fc;strokeColor=#6c8ebf;" parent="1" vertex="1">
          <mxGeometry x="581.5" y="86" width="130" height="30" as="geometry" />
        </mxCell>
        <mxCell id="4s9nhKdhcSExY_lbLFu8-23" value="deactivate client data" style="ellipse;whiteSpace=wrap;html=1;verticalAlign=top;strokeWidth=2;fillColor=#dae8fc;strokeColor=#6c8ebf;" parent="1" vertex="1">
          <mxGeometry x="574" y="121" width="137.5" height="30" as="geometry" />
        </mxCell>
        <mxCell id="4s9nhKdhcSExY_lbLFu8-24" value="" style="rounded=0;orthogonalLoop=1;jettySize=auto;html=1;endArrow=none;endFill=0;strokeWidth=1;fillColor=#dae8fc;strokeColor=#6c8ebf;exitX=1;exitY=0.5;exitDx=0;exitDy=0;dashed=1;entryX=0;entryY=0.5;entryDx=0;entryDy=0;startArrow=open;startFill=0;" parent="1" source="4s9nhKdhcSExY_lbLFu8-17" target="4s9nhKdhcSExY_lbLFu8-23" edge="1">
          <mxGeometry relative="1" as="geometry">
            <mxPoint x="100" y="163.33333333333337" as="sourcePoint" />
            <mxPoint x="218.6647544613736" y="120.232612960398" as="targetPoint" />
          </mxGeometry>
        </mxCell>
        <mxCell id="4s9nhKdhcSExY_lbLFu8-25" value="" style="rounded=0;orthogonalLoop=1;jettySize=auto;html=1;endArrow=none;endFill=0;strokeWidth=1;fillColor=#dae8fc;strokeColor=#6c8ebf;exitX=1;exitY=0.5;exitDx=0;exitDy=0;dashed=1;entryX=0;entryY=0.5;entryDx=0;entryDy=0;startArrow=open;startFill=0;" parent="1" source="4s9nhKdhcSExY_lbLFu8-17" target="4s9nhKdhcSExY_lbLFu8-18" edge="1">
          <mxGeometry relative="1" as="geometry">
            <mxPoint x="348" y="122" as="sourcePoint" />
            <mxPoint x="435" y="165" as="targetPoint" />
          </mxGeometry>
        </mxCell>
        <mxCell id="4s9nhKdhcSExY_lbLFu8-26" value="&amp;lt;&amp;lt;extend&amp;gt;&amp;gt;" style="edgeLabel;html=1;align=center;verticalAlign=middle;resizable=0;points=[];rotation=-5;" parent="4s9nhKdhcSExY_lbLFu8-25" vertex="1" connectable="0">
          <mxGeometry x="-0.2426" y="-1" relative="1" as="geometry">
            <mxPoint x="4" y="-12" as="offset" />
          </mxGeometry>
        </mxCell>
        <mxCell id="4s9nhKdhcSExY_lbLFu8-27" value="&amp;lt;&amp;lt;extend&amp;gt;&amp;gt;" style="edgeLabel;html=1;align=center;verticalAlign=middle;resizable=0;points=[];rotation=5;" parent="1" vertex="1" connectable="0">
          <mxGeometry x="472" y="131.00015931936983" as="geometry" />
        </mxCell>
        <mxCell id="4s9nhKdhcSExY_lbLFu8-28" style="edgeStyle=none;rounded=0;orthogonalLoop=1;jettySize=auto;html=1;exitX=0.5;exitY=1;exitDx=0;exitDy=0;dashed=1;endArrow=open;endFill=0;strokeWidth=2;" parent="1" source="4s9nhKdhcSExY_lbLFu8-23" target="4s9nhKdhcSExY_lbLFu8-23" edge="1">
          <mxGeometry relative="1" as="geometry" />
        </mxCell>
        <mxCell id="4s9nhKdhcSExY_lbLFu8-31" value="Admin" style="shape=umlActor;verticalLabelPosition=bottom;verticalAlign=top;html=1;outlineConnect=0;strokeWidth=2;fillColor=#dae8fc;strokeColor=#6c8ebf;" parent="1" vertex="1">
          <mxGeometry x="770" y="230" width="40" height="80" as="geometry" />
        </mxCell>
        <mxCell id="4s9nhKdhcSExY_lbLFu8-33" value="" style="rounded=0;orthogonalLoop=1;jettySize=auto;html=1;endArrow=open;endFill=0;strokeWidth=1;fillColor=#dae8fc;strokeColor=#6c8ebf;exitX=0;exitY=0.3333333333333333;exitDx=0;exitDy=0;exitPerimeter=0;entryX=1;entryY=0.5;entryDx=0;entryDy=0;" parent="1" source="4s9nhKdhcSExY_lbLFu8-31" target="4s9nhKdhcSExY_lbLFu8-34" edge="1">
          <mxGeometry relative="1" as="geometry">
            <mxPoint x="90" y="279.66666666666663" as="sourcePoint" />
            <mxPoint x="208.6647544613736" y="223.232612960398" as="targetPoint" />
          </mxGeometry>
        </mxCell>
        <mxCell id="4s9nhKdhcSExY_lbLFu8-37" value="update user account" style="ellipse;whiteSpace=wrap;html=1;verticalAlign=top;strokeWidth=2;fillColor=#dae8fc;strokeColor=#6c8ebf;" parent="1" vertex="1">
          <mxGeometry x="410" y="163" width="130" height="30" as="geometry" />
        </mxCell>
        <mxCell id="4s9nhKdhcSExY_lbLFu8-38" value="deactivate user account" style="ellipse;whiteSpace=wrap;html=1;verticalAlign=top;strokeWidth=2;fillColor=#dae8fc;strokeColor=#6c8ebf;" parent="1" vertex="1">
          <mxGeometry x="575" y="161" width="136.5" height="30" as="geometry" />
        </mxCell>
        <mxCell id="4s9nhKdhcSExY_lbLFu8-39" value="" style="rounded=0;orthogonalLoop=1;jettySize=auto;html=1;endArrow=none;endFill=0;strokeWidth=1;fillColor=#dae8fc;strokeColor=#6c8ebf;exitX=0.381;exitY=-0.001;exitDx=0;exitDy=0;dashed=1;entryX=0.397;entryY=0.973;entryDx=0;entryDy=0;startArrow=open;startFill=0;exitPerimeter=0;entryPerimeter=0;" parent="1" source="4s9nhKdhcSExY_lbLFu8-34" target="4s9nhKdhcSExY_lbLFu8-38" edge="1">
          <mxGeometry relative="1" as="geometry">
            <mxPoint x="338" y="202" as="sourcePoint" />
            <mxPoint x="218.6647544613736" y="210.232612960398" as="targetPoint" />
          </mxGeometry>
        </mxCell>
        <mxCell id="4s9nhKdhcSExY_lbLFu8-40" value="" style="rounded=0;orthogonalLoop=1;jettySize=auto;html=1;endArrow=none;endFill=0;strokeWidth=1;fillColor=#dae8fc;strokeColor=#6c8ebf;dashed=1;entryX=1;entryY=1;entryDx=0;entryDy=0;startArrow=open;startFill=0;" parent="1" source="4s9nhKdhcSExY_lbLFu8-34" target="4s9nhKdhcSExY_lbLFu8-37" edge="1">
          <mxGeometry relative="1" as="geometry">
            <mxPoint x="338" y="202" as="sourcePoint" />
            <mxPoint x="435" y="255" as="targetPoint" />
          </mxGeometry>
        </mxCell>
        <mxCell id="4s9nhKdhcSExY_lbLFu8-41" value="&amp;lt;&amp;lt;extend&amp;gt;&amp;gt;" style="edgeLabel;html=1;align=center;verticalAlign=middle;resizable=0;points=[];rotation=30;labelBackgroundColor=none;" parent="4s9nhKdhcSExY_lbLFu8-40" vertex="1" connectable="0">
          <mxGeometry x="-0.2426" y="-1" relative="1" as="geometry">
            <mxPoint x="-20" y="-2" as="offset" />
          </mxGeometry>
        </mxCell>
        <mxCell id="4s9nhKdhcSExY_lbLFu8-43" style="edgeStyle=none;rounded=0;orthogonalLoop=1;jettySize=auto;html=1;exitX=0.5;exitY=1;exitDx=0;exitDy=0;dashed=1;endArrow=open;endFill=0;strokeWidth=2;" parent="1" source="4s9nhKdhcSExY_lbLFu8-38" target="4s9nhKdhcSExY_lbLFu8-38" edge="1">
          <mxGeometry relative="1" as="geometry" />
        </mxCell>
        <mxCell id="4s9nhKdhcSExY_lbLFu8-44" value="Physicians " style="shape=umlActor;verticalLabelPosition=bottom;verticalAlign=top;html=1;outlineConnect=0;strokeWidth=2;fillColor=#dae8fc;strokeColor=#6c8ebf;" parent="1" vertex="1">
          <mxGeometry x="67" y="215" width="40" height="80" as="geometry" />
        </mxCell>
        <mxCell id="4s9nhKdhcSExY_lbLFu8-49" value="" style="rounded=0;orthogonalLoop=1;jettySize=auto;html=1;endArrow=open;endFill=0;strokeWidth=1;fillColor=#dae8fc;strokeColor=#6c8ebf;exitX=1;exitY=0.3333333333333333;exitDx=0;exitDy=0;exitPerimeter=0;entryX=0;entryY=0.5;entryDx=0;entryDy=0;" parent="1" source="4s9nhKdhcSExY_lbLFu8-44" target="4s9nhKdhcSExY_lbLFu8-50" edge="1">
          <mxGeometry relative="1" as="geometry">
            <mxPoint x="110" y="356.66666666666663" as="sourcePoint" />
            <mxPoint x="228.6647544613736" y="333.232612960398" as="targetPoint" />
          </mxGeometry>
        </mxCell>
        <mxCell id="4s9nhKdhcSExY_lbLFu8-55" value="&lt;div&gt;update maternal &lt;br&gt;&lt;/div&gt;&lt;div&gt;attribute&lt;/div&gt;" style="ellipse;whiteSpace=wrap;html=1;verticalAlign=top;strokeWidth=2;fillColor=#dae8fc;strokeColor=#6c8ebf;" parent="1" vertex="1">
          <mxGeometry x="426.5" y="217" width="115" height="38" as="geometry" />
        </mxCell>
        <mxCell id="4s9nhKdhcSExY_lbLFu8-56" value="" style="rounded=0;orthogonalLoop=1;jettySize=auto;html=1;endArrow=none;endFill=0;strokeWidth=1;fillColor=#dae8fc;strokeColor=#6c8ebf;exitX=1;exitY=0.5;exitDx=0;exitDy=0;dashed=1;entryX=0;entryY=0.5;entryDx=0;entryDy=0;startArrow=open;startFill=0;" parent="1" source="4s9nhKdhcSExY_lbLFu8-50" target="4s9nhKdhcSExY_lbLFu8-55" edge="1">
          <mxGeometry relative="1" as="geometry">
            <mxPoint x="339.98" y="308" as="sourcePoint" />
            <mxPoint x="445" y="345" as="targetPoint" />
          </mxGeometry>
        </mxCell>
        <mxCell id="4s9nhKdhcSExY_lbLFu8-57" value="&lt;div&gt;&amp;lt;&amp;lt;extend&amp;gt;&amp;gt;&lt;/div&gt;" style="edgeLabel;html=1;align=center;verticalAlign=middle;resizable=0;points=[];rotation=15;" parent="4s9nhKdhcSExY_lbLFu8-56" vertex="1" connectable="0">
          <mxGeometry x="-0.2426" y="-1" relative="1" as="geometry">
            <mxPoint x="14" y="-11" as="offset" />
          </mxGeometry>
        </mxCell>
        <mxCell id="4s9nhKdhcSExY_lbLFu8-58" value="" style="rounded=0;orthogonalLoop=1;jettySize=auto;html=1;endArrow=open;endFill=0;strokeWidth=1;fillColor=#dae8fc;strokeColor=#6c8ebf;exitX=1;exitY=0.3333333333333333;exitDx=0;exitDy=0;exitPerimeter=0;entryX=0;entryY=0.5;entryDx=0;entryDy=0;" parent="1" source="4s9nhKdhcSExY_lbLFu8-44" target="4s9nhKdhcSExY_lbLFu8-53" edge="1">
          <mxGeometry relative="1" as="geometry">
            <mxPoint x="100" y="377.66666666666663" as="sourcePoint" />
            <mxPoint x="210" y="420" as="targetPoint" />
          </mxGeometry>
        </mxCell>
        <mxCell id="4s9nhKdhcSExY_lbLFu8-59" value="" style="rounded=0;orthogonalLoop=1;jettySize=auto;html=1;endArrow=open;endFill=0;strokeWidth=1;fillColor=#dae8fc;strokeColor=#6c8ebf;exitX=1;exitY=0.3333333333333333;exitDx=0;exitDy=0;exitPerimeter=0;entryX=0;entryY=0.5;entryDx=0;entryDy=0;" parent="1" source="4s9nhKdhcSExY_lbLFu8-44" target="4s9nhKdhcSExY_lbLFu8-52" edge="1">
          <mxGeometry relative="1" as="geometry">
            <mxPoint x="110" y="387.66666666666663" as="sourcePoint" />
            <mxPoint x="228" y="325" as="targetPoint" />
          </mxGeometry>
        </mxCell>
        <mxCell id="4s9nhKdhcSExY_lbLFu8-61" value="" style="rounded=0;orthogonalLoop=1;jettySize=auto;html=1;endArrow=open;endFill=0;strokeWidth=1;fillColor=#dae8fc;strokeColor=#6c8ebf;exitX=1;exitY=0.3333333333333333;exitDx=0;exitDy=0;exitPerimeter=0;entryX=0;entryY=0.5;entryDx=0;entryDy=0;" parent="1" source="4s9nhKdhcSExY_lbLFu8-44" target="4s9nhKdhcSExY_lbLFu8-51" edge="1">
          <mxGeometry relative="1" as="geometry">
            <mxPoint x="130" y="407.66666666666663" as="sourcePoint" />
            <mxPoint x="248" y="345" as="targetPoint" />
          </mxGeometry>
        </mxCell>
        <mxCell id="4s9nhKdhcSExY_lbLFu8-62" value="Midwife" style="shape=umlActor;verticalLabelPosition=bottom;verticalAlign=top;html=1;outlineConnect=0;strokeWidth=2;fillColor=#dae8fc;strokeColor=#6c8ebf;" parent="1" vertex="1">
          <mxGeometry x="43" y="364" width="40" height="80" as="geometry" />
        </mxCell>
        <mxCell id="4s9nhKdhcSExY_lbLFu8-69" value="Client" style="shape=umlActor;verticalLabelPosition=bottom;verticalAlign=top;html=1;outlineConnect=0;strokeWidth=2;fillColor=#dae8fc;strokeColor=#6c8ebf;" parent="1" vertex="1">
          <mxGeometry x="47" y="491" width="40" height="80" as="geometry" />
        </mxCell>
        <mxCell id="4s9nhKdhcSExY_lbLFu8-70" value="" style="rounded=0;orthogonalLoop=1;jettySize=auto;html=1;endArrow=open;endFill=0;strokeWidth=1;fillColor=#dae8fc;strokeColor=#6c8ebf;exitX=1;exitY=0.3333333333333333;exitDx=0;exitDy=0;exitPerimeter=0;entryX=0;entryY=0.5;entryDx=0;entryDy=0;" parent="1" source="4s9nhKdhcSExY_lbLFu8-69" target="4s9nhKdhcSExY_lbLFu8-68" edge="1">
          <mxGeometry relative="1" as="geometry">
            <mxPoint x="670" y="337.66666666666663" as="sourcePoint" />
            <mxPoint x="550.9619407771256" y="410.3933982822016" as="targetPoint" />
          </mxGeometry>
        </mxCell>
        <mxCell id="4s9nhKdhcSExY_lbLFu8-74" value="" style="rounded=0;orthogonalLoop=1;jettySize=auto;html=1;endArrow=open;endFill=0;strokeWidth=1;fillColor=#dae8fc;strokeColor=#6c8ebf;exitX=1;exitY=0.3333333333333333;exitDx=0;exitDy=0;exitPerimeter=0;entryX=0;entryY=0.5;entryDx=0;entryDy=0;" parent="1" source="4s9nhKdhcSExY_lbLFu8-44" target="4s9nhKdhcSExY_lbLFu8-71" edge="1">
          <mxGeometry relative="1" as="geometry">
            <mxPoint x="100" y="377.66666666666663" as="sourcePoint" />
            <mxPoint x="218" y="475" as="targetPoint" />
          </mxGeometry>
        </mxCell>
        <mxCell id="4s9nhKdhcSExY_lbLFu8-75" value="Pharmacist" style="shape=umlActor;verticalLabelPosition=bottom;verticalAlign=top;html=1;outlineConnect=0;strokeWidth=2;fillColor=#dae8fc;strokeColor=#6c8ebf;" parent="1" vertex="1">
          <mxGeometry x="770" y="344" width="40" height="80" as="geometry" />
        </mxCell>
        <mxCell id="4s9nhKdhcSExY_lbLFu8-76" value="" style="rounded=0;orthogonalLoop=1;jettySize=auto;html=1;endArrow=open;endFill=0;strokeWidth=1;fillColor=#dae8fc;strokeColor=#6c8ebf;exitX=0;exitY=0.3333333333333333;exitDx=0;exitDy=0;exitPerimeter=0;entryX=1;entryY=0.5;entryDx=0;entryDy=0;" parent="1" source="4s9nhKdhcSExY_lbLFu8-75" target="4s9nhKdhcSExY_lbLFu8-77" edge="1">
          <mxGeometry relative="1" as="geometry">
            <mxPoint x="110" y="615.6666666666666" as="sourcePoint" />
            <mxPoint x="673" y="368" as="targetPoint" />
          </mxGeometry>
        </mxCell>
        <mxCell id="4s9nhKdhcSExY_lbLFu8-85" value="" style="rounded=0;orthogonalLoop=1;jettySize=auto;html=1;endArrow=open;endFill=0;strokeWidth=1;fillColor=#dae8fc;strokeColor=#6c8ebf;exitX=1;exitY=0.3333333333333333;exitDx=0;exitDy=0;exitPerimeter=0;entryX=0;entryY=0.5;entryDx=0;entryDy=0;" parent="1" source="4s9nhKdhcSExY_lbLFu8-102" target="4s9nhKdhcSExY_lbLFu8-80" edge="1">
          <mxGeometry relative="1" as="geometry">
            <mxPoint x="100" y="636.6666666666666" as="sourcePoint" />
            <mxPoint x="210" y="679" as="targetPoint" />
          </mxGeometry>
        </mxCell>
        <mxCell id="4s9nhKdhcSExY_lbLFu8-86" value="" style="rounded=0;orthogonalLoop=1;jettySize=auto;html=1;endArrow=open;endFill=0;strokeWidth=1;fillColor=#dae8fc;strokeColor=#6c8ebf;entryX=0;entryY=0.5;entryDx=0;entryDy=0;exitX=1;exitY=0.3333333333333333;exitDx=0;exitDy=0;exitPerimeter=0;" parent="1" source="4s9nhKdhcSExY_lbLFu8-102" target="4s9nhKdhcSExY_lbLFu8-79" edge="1">
          <mxGeometry relative="1" as="geometry">
            <mxPoint x="110" y="646.6666666666666" as="sourcePoint" />
            <mxPoint x="228" y="584" as="targetPoint" />
          </mxGeometry>
        </mxCell>
        <mxCell id="4s9nhKdhcSExY_lbLFu8-88" value="" style="rounded=0;orthogonalLoop=1;jettySize=auto;html=1;endArrow=open;endFill=0;strokeWidth=1;fillColor=#dae8fc;strokeColor=#6c8ebf;exitX=0;exitY=0.3333333333333333;exitDx=0;exitDy=0;exitPerimeter=0;entryX=1;entryY=0.5;entryDx=0;entryDy=0;" parent="1" source="4s9nhKdhcSExY_lbLFu8-75" target="4s9nhKdhcSExY_lbLFu8-78" edge="1">
          <mxGeometry relative="1" as="geometry">
            <mxPoint x="130" y="666.6666666666666" as="sourcePoint" />
            <mxPoint x="248" y="604" as="targetPoint" />
          </mxGeometry>
        </mxCell>
        <mxCell id="4s9nhKdhcSExY_lbLFu8-89" value="Radiologist" style="shape=umlActor;verticalLabelPosition=bottom;verticalAlign=top;html=1;outlineConnect=0;strokeWidth=2;fillColor=#dae8fc;strokeColor=#6c8ebf;" parent="1" vertex="1">
          <mxGeometry x="770" y="719" width="40" height="80" as="geometry" />
        </mxCell>
        <mxCell id="4s9nhKdhcSExY_lbLFu8-91" value="" style="rounded=0;orthogonalLoop=1;jettySize=auto;html=1;endArrow=open;endFill=0;strokeWidth=1;fillColor=#dae8fc;strokeColor=#6c8ebf;exitX=0;exitY=0.3333333333333333;exitDx=0;exitDy=0;exitPerimeter=0;entryX=1;entryY=0.5;entryDx=0;entryDy=0;" parent="1" source="4s9nhKdhcSExY_lbLFu8-89" target="4s9nhKdhcSExY_lbLFu8-80" edge="1">
          <mxGeometry relative="1" as="geometry">
            <mxPoint x="700" y="585.6666666666666" as="sourcePoint" />
            <mxPoint x="338" y="683" as="targetPoint" />
          </mxGeometry>
        </mxCell>
        <mxCell id="4s9nhKdhcSExY_lbLFu8-92" value="" style="rounded=0;orthogonalLoop=1;jettySize=auto;html=1;endArrow=open;endFill=0;strokeWidth=1;fillColor=#dae8fc;strokeColor=#6c8ebf;exitX=0;exitY=0.3333333333333333;exitDx=0;exitDy=0;exitPerimeter=0;entryX=1;entryY=0.5;entryDx=0;entryDy=0;" parent="1" source="4s9nhKdhcSExY_lbLFu8-89" target="4s9nhKdhcSExY_lbLFu8-79" edge="1">
          <mxGeometry relative="1" as="geometry">
            <mxPoint x="720" y="606.6666666666666" as="sourcePoint" />
            <mxPoint x="818" y="604" as="targetPoint" />
          </mxGeometry>
        </mxCell>
        <mxCell id="4s9nhKdhcSExY_lbLFu8-95" value="generate report" style="ellipse;whiteSpace=wrap;html=1;verticalAlign=top;strokeWidth=2;fillColor=#dae8fc;strokeColor=#6c8ebf;" parent="1" vertex="1">
          <mxGeometry x="603.5" y="469" width="113.5" height="30" as="geometry" />
        </mxCell>
        <mxCell id="4s9nhKdhcSExY_lbLFu8-96" value="data clerk" style="shape=umlActor;verticalLabelPosition=bottom;verticalAlign=top;html=1;outlineConnect=0;strokeWidth=2;fillColor=#dae8fc;strokeColor=#6c8ebf;" parent="1" vertex="1">
          <mxGeometry x="770" y="469" width="40" height="80" as="geometry" />
        </mxCell>
        <mxCell id="4s9nhKdhcSExY_lbLFu8-97" value="" style="rounded=0;orthogonalLoop=1;jettySize=auto;html=1;endArrow=open;endFill=0;strokeWidth=1;fillColor=#dae8fc;strokeColor=#6c8ebf;exitX=0;exitY=0.3333333333333333;exitDx=0;exitDy=0;exitPerimeter=0;entryX=1;entryY=0.5;entryDx=0;entryDy=0;" parent="1" source="4s9nhKdhcSExY_lbLFu8-96" target="4s9nhKdhcSExY_lbLFu8-95" edge="1">
          <mxGeometry relative="1" as="geometry">
            <mxPoint x="671.99" y="421.66666666666663" as="sourcePoint" />
            <mxPoint x="552.9519407771256" y="494.3933982822016" as="targetPoint" />
          </mxGeometry>
        </mxCell>
        <mxCell id="4s9nhKdhcSExY_lbLFu8-99" value="" style="rounded=0;orthogonalLoop=1;jettySize=auto;html=1;endArrow=open;endFill=0;strokeWidth=1;fillColor=#dae8fc;strokeColor=#6c8ebf;exitX=0;exitY=0.3333333333333333;exitDx=0;exitDy=0;exitPerimeter=0;entryX=1;entryY=0.5;entryDx=0;entryDy=0;" parent="1" source="4s9nhKdhcSExY_lbLFu8-96" target="4s9nhKdhcSExY_lbLFu8-110" edge="1">
          <mxGeometry relative="1" as="geometry">
            <mxPoint x="671.99" y="550.6666666666666" as="sourcePoint" />
            <mxPoint x="391.99" y="745" as="targetPoint" />
          </mxGeometry>
        </mxCell>
        <mxCell id="4s9nhKdhcSExY_lbLFu8-101" value="" style="rounded=0;orthogonalLoop=1;jettySize=auto;html=1;endArrow=open;endFill=0;strokeWidth=1;fillColor=#dae8fc;strokeColor=#6c8ebf;exitX=1;exitY=0.3333333333333333;exitDx=0;exitDy=0;exitPerimeter=0;entryX=0.015;entryY=0.686;entryDx=0;entryDy=0;entryPerimeter=0;" parent="1" source="4s9nhKdhcSExY_lbLFu8-106" target="4s9nhKdhcSExY_lbLFu8-80" edge="1">
          <mxGeometry relative="1" as="geometry">
            <mxPoint x="80" y="840" as="sourcePoint" />
            <mxPoint x="201" y="780" as="targetPoint" />
          </mxGeometry>
        </mxCell>
        <mxCell id="4s9nhKdhcSExY_lbLFu8-102" value="Lab Technician " style="shape=umlActor;verticalLabelPosition=bottom;verticalAlign=top;html=1;outlineConnect=0;strokeWidth=2;fillColor=#dae8fc;strokeColor=#6c8ebf;" parent="1" vertex="1">
          <mxGeometry x="49" y="731" width="40" height="80" as="geometry" />
        </mxCell>
        <mxCell id="4s9nhKdhcSExY_lbLFu8-106" value="Gynecologist " style="shape=umlActor;verticalLabelPosition=bottom;verticalAlign=top;html=1;outlineConnect=0;strokeWidth=2;fillColor=#dae8fc;strokeColor=#6c8ebf;" parent="1" vertex="1">
          <mxGeometry x="52" y="615" width="40" height="80" as="geometry" />
        </mxCell>
        <mxCell id="4s9nhKdhcSExY_lbLFu8-107" value="update result" style="ellipse;whiteSpace=wrap;html=1;verticalAlign=top;strokeWidth=2;fillColor=#dae8fc;strokeColor=#6c8ebf;" parent="1" vertex="1">
          <mxGeometry x="208.5" y="795" width="95" height="30" as="geometry" />
        </mxCell>
        <mxCell id="4s9nhKdhcSExY_lbLFu8-108" value="" style="rounded=0;orthogonalLoop=1;jettySize=auto;html=1;endArrow=none;endFill=0;strokeWidth=1;fillColor=#dae8fc;strokeColor=#6c8ebf;dashed=1;entryX=0.5;entryY=0;entryDx=0;entryDy=0;startArrow=open;startFill=0;exitX=0.5;exitY=1;exitDx=0;exitDy=0;" parent="1" source="4s9nhKdhcSExY_lbLFu8-80" target="4s9nhKdhcSExY_lbLFu8-107" edge="1">
          <mxGeometry relative="1" as="geometry">
            <mxPoint x="266" y="795" as="sourcePoint" />
            <mxPoint x="475" y="777" as="targetPoint" />
          </mxGeometry>
        </mxCell>
        <mxCell id="4s9nhKdhcSExY_lbLFu8-109" value="&amp;lt;&amp;lt;extend&amp;gt;&amp;gt;" style="edgeLabel;html=1;align=center;verticalAlign=middle;resizable=0;points=[];rotation=0;" parent="4s9nhKdhcSExY_lbLFu8-108" vertex="1" connectable="0">
          <mxGeometry x="-0.2426" y="-1" relative="1" as="geometry">
            <mxPoint x="-1" y="5" as="offset" />
          </mxGeometry>
        </mxCell>
        <mxCell id="4s9nhKdhcSExY_lbLFu8-110" value="send report" style="ellipse;whiteSpace=wrap;html=1;verticalAlign=top;strokeWidth=2;fillColor=#dae8fc;strokeColor=#6c8ebf;" parent="1" vertex="1">
          <mxGeometry x="593" y="519" width="118.5" height="30" as="geometry" />
        </mxCell>
        <mxCell id="4s9nhKdhcSExY_lbLFu8-113" value="HIMS Officer" style="shape=umlActor;verticalLabelPosition=bottom;verticalAlign=top;html=1;outlineConnect=0;strokeWidth=2;fillColor=#dae8fc;strokeColor=#6c8ebf;" parent="1" vertex="1">
          <mxGeometry x="770" y="594" width="40" height="80" as="geometry" />
        </mxCell>
        <mxCell id="4s9nhKdhcSExY_lbLFu8-114" value="" style="rounded=0;orthogonalLoop=1;jettySize=auto;html=1;endArrow=open;endFill=0;strokeWidth=1;fillColor=#dae8fc;strokeColor=#6c8ebf;exitX=0;exitY=0.3333333333333333;exitDx=0;exitDy=0;exitPerimeter=0;entryX=1;entryY=0.5;entryDx=0;entryDy=0;" parent="1" source="4s9nhKdhcSExY_lbLFu8-113" target="4s9nhKdhcSExY_lbLFu8-112" edge="1">
          <mxGeometry relative="1" as="geometry">
            <mxPoint x="64.01" y="814.6666666666667" as="sourcePoint" />
            <mxPoint x="353.01" y="843" as="targetPoint" />
          </mxGeometry>
        </mxCell>
        <mxCell id="4s9nhKdhcSExY_lbLFu8-116" value="" style="rounded=0;orthogonalLoop=1;jettySize=auto;html=1;endArrow=open;endFill=0;strokeWidth=1;fillColor=#dae8fc;strokeColor=#6c8ebf;exitX=0;exitY=0.3333333333333333;exitDx=0;exitDy=0;exitPerimeter=0;entryX=1;entryY=0.5;entryDx=0;entryDy=0;" parent="1" source="4s9nhKdhcSExY_lbLFu8-113" target="4s9nhKdhcSExY_lbLFu8-120" edge="1">
          <mxGeometry relative="1" as="geometry">
            <mxPoint x="64.01" y="816.6666666666667" as="sourcePoint" />
            <mxPoint x="354.01" y="895" as="targetPoint" />
          </mxGeometry>
        </mxCell>
        <mxCell id="4s9nhKdhcSExY_lbLFu8-121" value="&lt;font style=&quot;font-size: 13px;&quot;&gt;&lt;b&gt;MHIS Use Case Diagram&lt;/b&gt;&lt;/font&gt;" style="text;html=1;strokeColor=none;fillColor=none;align=center;verticalAlign=middle;whiteSpace=wrap;rounded=0;" parent="1" vertex="1">
          <mxGeometry x="370" y="42" width="180" height="40" as="geometry" />
        </mxCell>
        <mxCell id="4s9nhKdhcSExY_lbLFu8-17" value="register client" style="ellipse;whiteSpace=wrap;html=1;verticalAlign=top;strokeWidth=2;fillColor=#dae8fc;strokeColor=#6c8ebf;" parent="1" vertex="1">
          <mxGeometry x="193" y="94" width="130" height="30" as="geometry" />
        </mxCell>
        <mxCell id="4s9nhKdhcSExY_lbLFu8-29" value="post blogs" style="ellipse;whiteSpace=wrap;html=1;verticalAlign=top;strokeWidth=2;fillColor=#dae8fc;strokeColor=#6c8ebf;" parent="1" vertex="1">
          <mxGeometry x="627.75" y="286" width="86" height="30" as="geometry" />
        </mxCell>
        <mxCell id="4s9nhKdhcSExY_lbLFu8-34" value="create user account" style="ellipse;whiteSpace=wrap;html=1;verticalAlign=top;strokeWidth=2;fillColor=#dae8fc;strokeColor=#6c8ebf;" parent="1" vertex="1">
          <mxGeometry x="581.5" y="232" width="130" height="30" as="geometry" />
        </mxCell>
        <mxCell id="4s9nhKdhcSExY_lbLFu8-50" value="add maternal attribute" style="ellipse;whiteSpace=wrap;html=1;verticalAlign=top;strokeWidth=2;fillColor=#dae8fc;strokeColor=#6c8ebf;" parent="1" vertex="1">
          <mxGeometry x="193" y="197" width="130" height="30" as="geometry" />
        </mxCell>
        <mxCell id="4s9nhKdhcSExY_lbLFu8-51" value="send lab request" style="ellipse;whiteSpace=wrap;html=1;verticalAlign=top;strokeWidth=2;fillColor=#dae8fc;strokeColor=#6c8ebf;" parent="1" vertex="1">
          <mxGeometry x="193" y="256" width="130" height="30" as="geometry" />
        </mxCell>
        <mxCell id="4s9nhKdhcSExY_lbLFu8-52" value="view lab result" style="ellipse;whiteSpace=wrap;html=1;verticalAlign=top;strokeWidth=2;fillColor=#dae8fc;strokeColor=#6c8ebf;" parent="1" vertex="1">
          <mxGeometry x="193" y="301" width="130" height="30" as="geometry" />
        </mxCell>
        <mxCell id="4s9nhKdhcSExY_lbLFu8-53" value="send prescription" style="ellipse;whiteSpace=wrap;html=1;verticalAlign=top;strokeWidth=2;fillColor=#dae8fc;strokeColor=#6c8ebf;" parent="1" vertex="1">
          <mxGeometry x="193" y="346" width="130" height="30" as="geometry" />
        </mxCell>
        <mxCell id="4s9nhKdhcSExY_lbLFu8-68" value="allocate bed" style="ellipse;whiteSpace=wrap;html=1;verticalAlign=top;strokeWidth=2;fillColor=#dae8fc;strokeColor=#6c8ebf;" parent="1" vertex="1">
          <mxGeometry x="193" y="532" width="130" height="30" as="geometry" />
        </mxCell>
        <mxCell id="4s9nhKdhcSExY_lbLFu8-71" value="view client history" style="ellipse;whiteSpace=wrap;html=1;verticalAlign=top;strokeWidth=2;fillColor=#dae8fc;strokeColor=#6c8ebf;" parent="1" vertex="1">
          <mxGeometry x="193" y="434" width="130" height="30" as="geometry" />
        </mxCell>
        <mxCell id="4s9nhKdhcSExY_lbLFu8-77" value="&lt;div&gt;view&lt;/div&gt;&lt;div&gt;&amp;nbsp;prescription&lt;/div&gt;" style="ellipse;whiteSpace=wrap;html=1;verticalAlign=top;strokeWidth=2;fillColor=#dae8fc;strokeColor=#6c8ebf;" parent="1" vertex="1">
          <mxGeometry x="609" y="325" width="102.5" height="43.5" as="geometry" />
        </mxCell>
        <mxCell id="4s9nhKdhcSExY_lbLFu8-78" value="prescribe medicines" style="ellipse;whiteSpace=wrap;html=1;verticalAlign=top;strokeWidth=2;fillColor=#dae8fc;strokeColor=#6c8ebf;" parent="1" vertex="1">
          <mxGeometry x="599" y="378" width="112.5" height="44" as="geometry" />
        </mxCell>
        <mxCell id="4s9nhKdhcSExY_lbLFu8-79" value="view request" style="ellipse;whiteSpace=wrap;html=1;verticalAlign=top;strokeWidth=2;fillColor=#dae8fc;strokeColor=#6c8ebf;" parent="1" vertex="1">
          <mxGeometry x="193" y="619" width="130" height="30" as="geometry" />
        </mxCell>
        <mxCell id="4s9nhKdhcSExY_lbLFu8-80" value="send result" style="ellipse;whiteSpace=wrap;html=1;verticalAlign=top;strokeWidth=2;fillColor=#dae8fc;strokeColor=#6c8ebf;" parent="1" vertex="1">
          <mxGeometry x="193" y="678" width="130" height="30" as="geometry" />
        </mxCell>
        <mxCell id="4s9nhKdhcSExY_lbLFu8-112" value="view report" style="ellipse;whiteSpace=wrap;html=1;verticalAlign=top;strokeWidth=2;fillColor=#dae8fc;strokeColor=#6c8ebf;" parent="1" vertex="1">
          <mxGeometry x="592" y="573" width="121.5" height="30" as="geometry" />
        </mxCell>
        <mxCell id="4s9nhKdhcSExY_lbLFu8-120" value="send feedback" style="ellipse;whiteSpace=wrap;html=1;verticalAlign=top;strokeWidth=2;fillColor=#dae8fc;strokeColor=#6c8ebf;" parent="1" vertex="1">
          <mxGeometry x="581.5" y="633" width="130" height="30" as="geometry" />
        </mxCell>
        <mxCell id="4s9nhKdhcSExY_lbLFu8-125" value="&amp;lt;&amp;lt;extend&amp;gt;&amp;gt;" style="edgeLabel;html=1;align=center;verticalAlign=middle;resizable=0;points=[];rotation=0;labelBackgroundColor=none;" parent="1" vertex="1" connectable="0">
          <mxGeometry x="627.7539838299126" y="205.9978753454903" as="geometry" />
        </mxCell>
        <mxCell id="4s9nhKdhcSExY_lbLFu8-155" value="&lt;div&gt;search&lt;/div&gt;&lt;div&gt;users&lt;br&gt;&lt;/div&gt;" style="ellipse;whiteSpace=wrap;html=1;verticalAlign=top;strokeWidth=2;fillColor=#dae8fc;strokeColor=#6c8ebf;" parent="1" vertex="1">
          <mxGeometry x="438" y="300.5" width="74" height="38.5" as="geometry" />
        </mxCell>
        <mxCell id="4s9nhKdhcSExY_lbLFu8-156" value="" style="rounded=0;orthogonalLoop=1;jettySize=auto;html=1;endArrow=open;endFill=0;strokeWidth=1;fillColor=#dae8fc;strokeColor=#6c8ebf;exitX=1;exitY=0.5;exitDx=0;exitDy=0;dashed=1;entryX=0;entryY=0;entryDx=0;entryDy=0;startArrow=none;startFill=0;" parent="1" source="4s9nhKdhcSExY_lbLFu8-17" target="4s9nhKdhcSExY_lbLFu8-155" edge="1">
          <mxGeometry relative="1" as="geometry">
            <mxPoint x="322.98" y="171" as="sourcePoint" />
            <mxPoint x="425" y="233" as="targetPoint" />
            <Array as="points">
              <mxPoint x="375" y="160" />
            </Array>
          </mxGeometry>
        </mxCell>
        <mxCell id="4s9nhKdhcSExY_lbLFu8-157" value="&amp;lt;&amp;lt;include&amp;gt;&amp;gt;" style="edgeLabel;html=1;align=center;verticalAlign=middle;resizable=0;points=[];fontSize=10;rotation=45;" parent="4s9nhKdhcSExY_lbLFu8-156" vertex="1" connectable="0">
          <mxGeometry x="-0.2426" y="-1" relative="1" as="geometry">
            <mxPoint x="-18" y="-43" as="offset" />
          </mxGeometry>
        </mxCell>
        <mxCell id="4s9nhKdhcSExY_lbLFu8-158" value="" style="rounded=0;orthogonalLoop=1;jettySize=auto;html=1;endArrow=open;endFill=0;strokeWidth=1;fillColor=#dae8fc;strokeColor=#6c8ebf;dashed=1;entryX=0.945;entryY=0.31;entryDx=0;entryDy=0;startArrow=none;startFill=0;exitX=0;exitY=1;exitDx=0;exitDy=0;entryPerimeter=0;" parent="1" source="4s9nhKdhcSExY_lbLFu8-34" target="4s9nhKdhcSExY_lbLFu8-155" edge="1">
          <mxGeometry relative="1" as="geometry">
            <mxPoint x="350" y="125" as="sourcePoint" />
            <mxPoint x="370" y="170" as="targetPoint" />
          </mxGeometry>
        </mxCell>
        <mxCell id="4s9nhKdhcSExY_lbLFu8-159" value="&amp;lt;&amp;lt;include&amp;gt;&amp;gt;" style="edgeLabel;html=1;align=center;verticalAlign=middle;resizable=0;points=[];fontSize=10;rotation=-35;labelBackgroundColor=none;" parent="4s9nhKdhcSExY_lbLFu8-158" vertex="1" connectable="0">
          <mxGeometry x="-0.2426" y="-1" relative="1" as="geometry">
            <mxPoint x="-19" y="3" as="offset" />
          </mxGeometry>
        </mxCell>
        <mxCell id="4s9nhKdhcSExY_lbLFu8-162" value="login" style="ellipse;whiteSpace=wrap;html=1;verticalAlign=top;strokeWidth=2;fillColor=#dae8fc;strokeColor=#6c8ebf;" parent="1" vertex="1">
          <mxGeometry x="435.685" y="414" width="78.63" height="30" as="geometry" />
        </mxCell>
        <mxCell id="4s9nhKdhcSExY_lbLFu8-163" value="" style="rounded=0;orthogonalLoop=1;jettySize=auto;html=1;endArrow=open;endFill=0;strokeWidth=1;fillColor=#dae8fc;strokeColor=#6c8ebf;exitX=1;exitY=0.5;exitDx=0;exitDy=0;dashed=1;entryX=0;entryY=0.5;entryDx=0;entryDy=0;" parent="1" source="4s9nhKdhcSExY_lbLFu8-50" target="4s9nhKdhcSExY_lbLFu8-155" edge="1">
          <mxGeometry relative="1" as="geometry">
            <mxPoint x="340" y="393" as="sourcePoint" />
            <mxPoint x="440" y="428" as="targetPoint" />
          </mxGeometry>
        </mxCell>
        <mxCell id="4s9nhKdhcSExY_lbLFu8-164" value="&amp;lt;&amp;lt;include&amp;gt;&amp;gt;" style="edgeLabel;html=1;align=center;verticalAlign=middle;resizable=0;points=[];rotation=45;labelBackgroundColor=none;" parent="4s9nhKdhcSExY_lbLFu8-163" vertex="1" connectable="0">
          <mxGeometry x="-0.2426" y="-1" relative="1" as="geometry">
            <mxPoint x="2" y="-10" as="offset" />
          </mxGeometry>
        </mxCell>
        <mxCell id="4s9nhKdhcSExY_lbLFu8-165" value="" style="rounded=0;orthogonalLoop=1;jettySize=auto;html=1;endArrow=open;endFill=0;strokeWidth=1;fillColor=#dae8fc;strokeColor=#6c8ebf;exitX=1;exitY=1;exitDx=0;exitDy=0;dashed=1;entryX=0.027;entryY=0.584;entryDx=0;entryDy=0;entryPerimeter=0;" parent="1" source="4s9nhKdhcSExY_lbLFu8-51" target="4s9nhKdhcSExY_lbLFu8-155" edge="1">
          <mxGeometry relative="1" as="geometry">
            <mxPoint x="350" y="254" as="sourcePoint" />
            <mxPoint x="484.0380592228744" y="429.3933982822018" as="targetPoint" />
          </mxGeometry>
        </mxCell>
        <mxCell id="4s9nhKdhcSExY_lbLFu8-166" value="&amp;lt;&amp;lt;include&amp;gt;&amp;gt;" style="edgeLabel;html=1;align=center;verticalAlign=middle;resizable=0;points=[];rotation=20;labelBackgroundColor=none;" parent="4s9nhKdhcSExY_lbLFu8-165" vertex="1" connectable="0">
          <mxGeometry x="-0.2426" y="-1" relative="1" as="geometry">
            <mxPoint x="30" y="12" as="offset" />
          </mxGeometry>
        </mxCell>
        <mxCell id="4s9nhKdhcSExY_lbLFu8-171" value="" style="rounded=0;orthogonalLoop=1;jettySize=auto;html=1;endArrow=open;endFill=0;strokeWidth=1;fillColor=#dae8fc;strokeColor=#6c8ebf;exitX=0;exitY=0.5;exitDx=0;exitDy=0;dashed=1;entryX=1;entryY=0.5;entryDx=0;entryDy=0;" parent="1" source="4s9nhKdhcSExY_lbLFu8-77" target="4s9nhKdhcSExY_lbLFu8-155" edge="1">
          <mxGeometry relative="1" as="geometry">
            <mxPoint x="330.9619407771256" y="542.6066017177982" as="sourcePoint" />
            <mxPoint x="479.97102512335005" y="583.5575565780848" as="targetPoint" />
          </mxGeometry>
        </mxCell>
        <mxCell id="4s9nhKdhcSExY_lbLFu8-172" value="&amp;lt;&amp;lt;include&amp;gt;&amp;gt;" style="edgeLabel;html=1;align=center;verticalAlign=middle;resizable=0;points=[];rotation=15;labelBackgroundColor=none;" parent="4s9nhKdhcSExY_lbLFu8-171" vertex="1" connectable="0">
          <mxGeometry x="-0.2426" y="-1" relative="1" as="geometry">
            <mxPoint x="-18" y="-14" as="offset" />
          </mxGeometry>
        </mxCell>
        <mxCell id="4s9nhKdhcSExY_lbLFu8-173" value="" style="rounded=0;orthogonalLoop=1;jettySize=auto;html=1;endArrow=open;endFill=0;strokeWidth=1;fillColor=#dae8fc;strokeColor=#6c8ebf;exitX=0;exitY=0;exitDx=0;exitDy=0;dashed=1;entryX=1;entryY=1;entryDx=0;entryDy=0;" parent="1" source="4s9nhKdhcSExY_lbLFu8-78" target="4s9nhKdhcSExY_lbLFu8-155" edge="1">
          <mxGeometry relative="1" as="geometry">
            <mxPoint x="351" y="602" as="sourcePoint" />
            <mxPoint x="505" y="335" as="targetPoint" />
          </mxGeometry>
        </mxCell>
        <mxCell id="4s9nhKdhcSExY_lbLFu8-174" value="&amp;lt;&amp;lt;include&amp;gt;&amp;gt;" style="edgeLabel;html=1;align=center;verticalAlign=middle;resizable=0;points=[];rotation=25;labelBackgroundColor=none;" parent="4s9nhKdhcSExY_lbLFu8-173" vertex="1" connectable="0">
          <mxGeometry x="-0.2426" y="-1" relative="1" as="geometry">
            <mxPoint x="-34" y="-10" as="offset" />
          </mxGeometry>
        </mxCell>
        <mxCell id="AnqKNxOWwsR5VdSXuidv-1" value="" style="rounded=0;orthogonalLoop=1;jettySize=auto;html=1;endArrow=open;endFill=0;strokeWidth=1;fillColor=#dae8fc;strokeColor=#6c8ebf;entryX=0;entryY=0.5;entryDx=0;entryDy=0;exitX=1;exitY=0.3333333333333333;exitDx=0;exitDy=0;exitPerimeter=0;" parent="1" source="4s9nhKdhcSExY_lbLFu8-106" target="4s9nhKdhcSExY_lbLFu8-79" edge="1">
          <mxGeometry relative="1" as="geometry">
            <mxPoint x="100" y="766.6666666666667" as="sourcePoint" />
            <mxPoint x="220" y="785" as="targetPoint" />
          </mxGeometry>
        </mxCell>
        <mxCell id="g5uCLun-pcc5QEBChkIE-4" value="" style="rounded=0;orthogonalLoop=1;jettySize=auto;html=1;endArrow=open;endFill=0;strokeWidth=1;fillColor=#dae8fc;strokeColor=#6c8ebf;exitX=1;exitY=1;exitDx=0;exitDy=0;dashed=1;entryX=0.2;entryY=0.099;entryDx=0;entryDy=0;startArrow=none;startFill=0;entryPerimeter=0;" parent="1" source="4s9nhKdhcSExY_lbLFu8-17" target="4s9nhKdhcSExY_lbLFu8-162" edge="1">
          <mxGeometry relative="1" as="geometry">
            <mxPoint x="331.0297811691337" y="135.59092310086265" as="sourcePoint" />
            <mxPoint x="559.0100000000004" y="296" as="targetPoint" />
            <Array as="points">
              <mxPoint x="353" y="167" />
              <mxPoint x="398" y="289" />
            </Array>
          </mxGeometry>
        </mxCell>
        <mxCell id="g5uCLun-pcc5QEBChkIE-5" value="&amp;lt;&amp;lt;include&amp;gt;&amp;gt;" style="edgeLabel;html=1;align=center;verticalAlign=middle;resizable=0;points=[];fontSize=10;rotation=40;" parent="g5uCLun-pcc5QEBChkIE-4" vertex="1" connectable="0">
          <mxGeometry x="-0.2426" y="-1" relative="1" as="geometry">
            <mxPoint x="-26" y="-79" as="offset" />
          </mxGeometry>
        </mxCell>
        <mxCell id="g5uCLun-pcc5QEBChkIE-17" value="" style="rounded=0;orthogonalLoop=1;jettySize=auto;html=1;endArrow=open;endFill=0;strokeWidth=1;fillColor=#dae8fc;strokeColor=#6c8ebf;exitX=1;exitY=1;exitDx=0;exitDy=0;dashed=1;entryX=0.077;entryY=0.237;entryDx=0;entryDy=0;entryPerimeter=0;" parent="1" source="4s9nhKdhcSExY_lbLFu8-50" target="4s9nhKdhcSExY_lbLFu8-162" edge="1">
          <mxGeometry relative="1" as="geometry">
            <mxPoint x="337" y="282" as="sourcePoint" />
            <mxPoint x="431" y="341" as="targetPoint" />
          </mxGeometry>
        </mxCell>
        <mxCell id="g5uCLun-pcc5QEBChkIE-18" value="&amp;lt;&amp;lt;include&amp;gt;&amp;gt;" style="edgeLabel;html=1;align=center;verticalAlign=middle;resizable=0;points=[];rotation=55;labelBackgroundColor=none;" parent="g5uCLun-pcc5QEBChkIE-17" vertex="1" connectable="0">
          <mxGeometry x="-0.2426" y="-1" relative="1" as="geometry">
            <mxPoint x="-17" y="-39" as="offset" />
          </mxGeometry>
        </mxCell>
        <mxCell id="g5uCLun-pcc5QEBChkIE-19" value="" style="rounded=0;orthogonalLoop=1;jettySize=auto;html=1;endArrow=open;endFill=0;strokeWidth=1;fillColor=#dae8fc;strokeColor=#6c8ebf;exitX=1;exitY=1;exitDx=0;exitDy=0;dashed=1;entryX=0.059;entryY=0.329;entryDx=0;entryDy=0;entryPerimeter=0;" parent="1" source="4s9nhKdhcSExY_lbLFu8-51" target="4s9nhKdhcSExY_lbLFu8-162" edge="1">
          <mxGeometry relative="1" as="geometry">
            <mxPoint x="347" y="292" as="sourcePoint" />
            <mxPoint x="441" y="351" as="targetPoint" />
          </mxGeometry>
        </mxCell>
        <mxCell id="g5uCLun-pcc5QEBChkIE-20" value="&amp;lt;&amp;lt;include&amp;gt;&amp;gt;" style="edgeLabel;html=1;align=center;verticalAlign=middle;resizable=0;points=[];rotation=45;labelBackgroundColor=none;" parent="g5uCLun-pcc5QEBChkIE-19" vertex="1" connectable="0">
          <mxGeometry x="-0.2426" y="-1" relative="1" as="geometry">
            <mxPoint x="1" y="-12" as="offset" />
          </mxGeometry>
        </mxCell>
        <mxCell id="g5uCLun-pcc5QEBChkIE-21" value="" style="rounded=0;orthogonalLoop=1;jettySize=auto;html=1;endArrow=open;endFill=0;strokeWidth=1;fillColor=#dae8fc;strokeColor=#6c8ebf;exitX=1;exitY=0.5;exitDx=0;exitDy=0;dashed=1;entryX=0;entryY=0.5;entryDx=0;entryDy=0;" parent="1" source="4s9nhKdhcSExY_lbLFu8-53" target="4s9nhKdhcSExY_lbLFu8-162" edge="1">
          <mxGeometry relative="1" as="geometry">
            <mxPoint x="357" y="302" as="sourcePoint" />
            <mxPoint x="451" y="361" as="targetPoint" />
          </mxGeometry>
        </mxCell>
        <mxCell id="g5uCLun-pcc5QEBChkIE-22" value="&amp;lt;&amp;lt;include&amp;gt;&amp;gt;" style="edgeLabel;html=1;align=center;verticalAlign=middle;resizable=0;points=[];rotation=30;" parent="g5uCLun-pcc5QEBChkIE-21" vertex="1" connectable="0">
          <mxGeometry x="-0.2426" y="-1" relative="1" as="geometry">
            <mxPoint x="2" y="-1" as="offset" />
          </mxGeometry>
        </mxCell>
        <mxCell id="g5uCLun-pcc5QEBChkIE-23" value="" style="rounded=0;orthogonalLoop=1;jettySize=auto;html=1;endArrow=open;endFill=0;strokeWidth=1;fillColor=#dae8fc;strokeColor=#6c8ebf;exitX=0.5;exitY=1;exitDx=0;exitDy=0;dashed=1;entryX=1;entryY=0;entryDx=0;entryDy=0;" parent="1" source="4s9nhKdhcSExY_lbLFu8-34" target="4s9nhKdhcSExY_lbLFu8-162" edge="1">
          <mxGeometry relative="1" as="geometry">
            <mxPoint x="367" y="312" as="sourcePoint" />
            <mxPoint x="461" y="371" as="targetPoint" />
          </mxGeometry>
        </mxCell>
        <mxCell id="g5uCLun-pcc5QEBChkIE-24" value="&amp;lt;&amp;lt;include&amp;gt;&amp;gt;" style="edgeLabel;html=1;align=center;verticalAlign=middle;resizable=0;points=[];rotation=-45;labelBackgroundColor=none;" parent="g5uCLun-pcc5QEBChkIE-23" vertex="1" connectable="0">
          <mxGeometry x="-0.2426" y="-1" relative="1" as="geometry">
            <mxPoint x="13" y="-27" as="offset" />
          </mxGeometry>
        </mxCell>
        <mxCell id="g5uCLun-pcc5QEBChkIE-25" value="" style="rounded=0;orthogonalLoop=1;jettySize=auto;html=1;endArrow=open;endFill=0;strokeWidth=1;fillColor=#dae8fc;strokeColor=#6c8ebf;exitX=1;exitY=0.5;exitDx=0;exitDy=0;dashed=1;entryX=0;entryY=0.5;entryDx=0;entryDy=0;" parent="1" source="4s9nhKdhcSExY_lbLFu8-52" target="4s9nhKdhcSExY_lbLFu8-162" edge="1">
          <mxGeometry relative="1" as="geometry">
            <mxPoint x="341" y="461" as="sourcePoint" />
            <mxPoint x="416.25" y="439.0000000000001" as="targetPoint" />
          </mxGeometry>
        </mxCell>
        <mxCell id="g5uCLun-pcc5QEBChkIE-26" value="&amp;lt;&amp;lt;include&amp;gt;&amp;gt;" style="edgeLabel;html=1;align=center;verticalAlign=middle;resizable=0;points=[];rotation=45;labelBackgroundColor=none;" parent="g5uCLun-pcc5QEBChkIE-25" vertex="1" connectable="0">
          <mxGeometry x="-0.2426" y="-1" relative="1" as="geometry">
            <mxPoint x="-12" y="-9" as="offset" />
          </mxGeometry>
        </mxCell>
        <mxCell id="g5uCLun-pcc5QEBChkIE-27" value="" style="rounded=0;orthogonalLoop=1;jettySize=auto;html=1;endArrow=open;endFill=0;strokeWidth=1;fillColor=#dae8fc;strokeColor=#6c8ebf;exitX=1;exitY=0.5;exitDx=0;exitDy=0;dashed=1;entryX=0.068;entryY=0.766;entryDx=0;entryDy=0;entryPerimeter=0;" parent="1" source="4s9nhKdhcSExY_lbLFu8-71" target="4s9nhKdhcSExY_lbLFu8-162" edge="1">
          <mxGeometry relative="1" as="geometry">
            <mxPoint x="351" y="471" as="sourcePoint" />
            <mxPoint x="426.25" y="449.0000000000001" as="targetPoint" />
          </mxGeometry>
        </mxCell>
        <mxCell id="g5uCLun-pcc5QEBChkIE-28" value="&amp;lt;&amp;lt;include&amp;gt;&amp;gt;" style="edgeLabel;html=1;align=center;verticalAlign=middle;resizable=0;points=[];rotation=0;" parent="g5uCLun-pcc5QEBChkIE-27" vertex="1" connectable="0">
          <mxGeometry x="-0.2426" y="-1" relative="1" as="geometry">
            <mxPoint x="-12" y="-12" as="offset" />
          </mxGeometry>
        </mxCell>
        <mxCell id="g5uCLun-pcc5QEBChkIE-29" value="" style="rounded=0;orthogonalLoop=1;jettySize=auto;html=1;endArrow=open;endFill=0;strokeWidth=1;fillColor=#dae8fc;strokeColor=#6c8ebf;exitX=0;exitY=0;exitDx=0;exitDy=0;dashed=1;entryX=1;entryY=1;entryDx=0;entryDy=0;" parent="1" source="4s9nhKdhcSExY_lbLFu8-95" target="4s9nhKdhcSExY_lbLFu8-162" edge="1">
          <mxGeometry relative="1" as="geometry">
            <mxPoint x="346.49999999999886" y="534.0000000000001" as="sourcePoint" />
            <mxPoint x="440.82000000000016" y="451.09000000000015" as="targetPoint" />
          </mxGeometry>
        </mxCell>
        <mxCell id="g5uCLun-pcc5QEBChkIE-30" value="&amp;lt;&amp;lt;include&amp;gt;&amp;gt;" style="edgeLabel;html=1;align=center;verticalAlign=middle;resizable=0;points=[];rotation=15;" parent="g5uCLun-pcc5QEBChkIE-29" vertex="1" connectable="0">
          <mxGeometry x="-0.2426" y="-1" relative="1" as="geometry">
            <mxPoint x="6" y="-8" as="offset" />
          </mxGeometry>
        </mxCell>
        <mxCell id="g5uCLun-pcc5QEBChkIE-31" value="" style="rounded=0;orthogonalLoop=1;jettySize=auto;html=1;endArrow=open;endFill=0;strokeWidth=1;fillColor=#dae8fc;strokeColor=#6c8ebf;exitX=0;exitY=0.5;exitDx=0;exitDy=0;dashed=1;entryX=0.715;entryY=0.926;entryDx=0;entryDy=0;entryPerimeter=0;" parent="1" source="4s9nhKdhcSExY_lbLFu8-110" target="4s9nhKdhcSExY_lbLFu8-162" edge="1">
          <mxGeometry relative="1" as="geometry">
            <mxPoint x="626.75" y="549.0000000000001" as="sourcePoint" />
            <mxPoint x="527.9511295532352" y="449.4332310704036" as="targetPoint" />
          </mxGeometry>
        </mxCell>
        <mxCell id="g5uCLun-pcc5QEBChkIE-32" value="&amp;lt;&amp;lt;include&amp;gt;&amp;gt;" style="edgeLabel;html=1;align=center;verticalAlign=middle;resizable=0;points=[];rotation=45;" parent="g5uCLun-pcc5QEBChkIE-31" vertex="1" connectable="0">
          <mxGeometry x="-0.2426" y="-1" relative="1" as="geometry">
            <mxPoint x="3" y="-18" as="offset" />
          </mxGeometry>
        </mxCell>
        <mxCell id="g5uCLun-pcc5QEBChkIE-33" value="" style="rounded=0;orthogonalLoop=1;jettySize=auto;html=1;endArrow=open;endFill=0;strokeWidth=1;fillColor=#dae8fc;strokeColor=#6c8ebf;exitX=0;exitY=0.5;exitDx=0;exitDy=0;dashed=1;entryX=1;entryY=0.5;entryDx=0;entryDy=0;" parent="1" source="4s9nhKdhcSExY_lbLFu8-78" target="4s9nhKdhcSExY_lbLFu8-162" edge="1">
          <mxGeometry relative="1" as="geometry">
            <mxPoint x="599.7988704467648" y="398.5667689295965" as="sourcePoint" />
            <mxPoint x="536.71" y="344.1969999999999" as="targetPoint" />
          </mxGeometry>
        </mxCell>
        <mxCell id="g5uCLun-pcc5QEBChkIE-34" value="&amp;lt;&amp;lt;include&amp;gt;&amp;gt;" style="edgeLabel;html=1;align=center;verticalAlign=middle;resizable=0;points=[];rotation=-20;labelBackgroundColor=none;" parent="g5uCLun-pcc5QEBChkIE-33" vertex="1" connectable="0">
          <mxGeometry x="-0.2426" y="-1" relative="1" as="geometry">
            <mxPoint x="-4" y="10" as="offset" />
          </mxGeometry>
        </mxCell>
        <mxCell id="g5uCLun-pcc5QEBChkIE-35" value="" style="rounded=0;orthogonalLoop=1;jettySize=auto;html=1;endArrow=open;endFill=0;strokeWidth=1;fillColor=#dae8fc;strokeColor=#6c8ebf;exitX=1;exitY=0;exitDx=0;exitDy=0;dashed=1;entryX=0.226;entryY=0.972;entryDx=0;entryDy=0;entryPerimeter=0;" parent="1" source="4s9nhKdhcSExY_lbLFu8-68" target="4s9nhKdhcSExY_lbLFu8-162" edge="1">
          <mxGeometry relative="1" as="geometry">
            <mxPoint x="317.9619407771256" y="642.6066017177982" as="sourcePoint" />
            <mxPoint x="450.0380592228744" y="663.3933982822018" as="targetPoint" />
          </mxGeometry>
        </mxCell>
        <mxCell id="g5uCLun-pcc5QEBChkIE-36" value="&amp;lt;&amp;lt;include&amp;gt;&amp;gt;" style="edgeLabel;html=1;align=center;verticalAlign=middle;resizable=0;points=[];rotation=-45;" parent="g5uCLun-pcc5QEBChkIE-35" vertex="1" connectable="0">
          <mxGeometry x="-0.2426" y="-1" relative="1" as="geometry">
            <mxPoint x="-20" y="2" as="offset" />
          </mxGeometry>
        </mxCell>
        <mxCell id="g5uCLun-pcc5QEBChkIE-37" value="" style="rounded=0;orthogonalLoop=1;jettySize=auto;html=1;endArrow=open;endFill=0;strokeWidth=1;fillColor=#dae8fc;strokeColor=#6c8ebf;exitX=1;exitY=0.5;exitDx=0;exitDy=0;dashed=1;" parent="1" source="4s9nhKdhcSExY_lbLFu8-79" target="4s9nhKdhcSExY_lbLFu8-162" edge="1">
          <mxGeometry relative="1" as="geometry">
            <mxPoint x="327.9619407771256" y="652.6066017177982" as="sourcePoint" />
            <mxPoint x="444" y="440" as="targetPoint" />
          </mxGeometry>
        </mxCell>
        <mxCell id="g5uCLun-pcc5QEBChkIE-38" value="&amp;lt;&amp;lt;include&amp;gt;&amp;gt;" style="edgeLabel;html=1;align=center;verticalAlign=middle;resizable=0;points=[];rotation=-45;" parent="g5uCLun-pcc5QEBChkIE-37" vertex="1" connectable="0">
          <mxGeometry x="-0.2426" y="-1" relative="1" as="geometry">
            <mxPoint x="-19" y="5" as="offset" />
          </mxGeometry>
        </mxCell>
        <mxCell id="g5uCLun-pcc5QEBChkIE-43" value="" style="rounded=0;orthogonalLoop=1;jettySize=auto;html=1;endArrow=open;endFill=0;strokeWidth=1;fillColor=#dae8fc;strokeColor=#6c8ebf;exitX=1;exitY=0.5;exitDx=0;exitDy=0;dashed=1;entryX=0.5;entryY=1;entryDx=0;entryDy=0;" parent="1" source="4s9nhKdhcSExY_lbLFu8-80" target="4s9nhKdhcSExY_lbLFu8-162" edge="1">
          <mxGeometry relative="1" as="geometry">
            <mxPoint x="339.0000000000016" y="684" as="sourcePoint" />
            <mxPoint x="454" y="450" as="targetPoint" />
          </mxGeometry>
        </mxCell>
        <mxCell id="g5uCLun-pcc5QEBChkIE-44" value="&amp;lt;&amp;lt;include&amp;gt;&amp;gt;" style="edgeLabel;html=1;align=center;verticalAlign=middle;resizable=0;points=[];rotation=-60;" parent="g5uCLun-pcc5QEBChkIE-43" vertex="1" connectable="0">
          <mxGeometry x="-0.2426" y="-1" relative="1" as="geometry">
            <mxPoint x="8" y="2" as="offset" />
          </mxGeometry>
        </mxCell>
        <mxCell id="g5uCLun-pcc5QEBChkIE-47" value="logout" style="ellipse;whiteSpace=wrap;html=1;verticalAlign=top;strokeWidth=2;fillColor=#dae8fc;strokeColor=#6c8ebf;" parent="1" vertex="1">
          <mxGeometry x="442.005" y="514" width="78.63" height="30" as="geometry" />
        </mxCell>
        <mxCell id="g5uCLun-pcc5QEBChkIE-49" value="" style="rounded=0;orthogonalLoop=1;jettySize=auto;html=1;endArrow=none;endFill=0;strokeWidth=1;fillColor=#dae8fc;strokeColor=#6c8ebf;exitX=0.5;exitY=1;exitDx=0;exitDy=0;dashed=1;entryX=0.5;entryY=0;entryDx=0;entryDy=0;startArrow=open;startFill=0;" parent="1" source="4s9nhKdhcSExY_lbLFu8-162" target="g5uCLun-pcc5QEBChkIE-47" edge="1">
          <mxGeometry relative="1" as="geometry">
            <mxPoint x="646.5" y="424" as="sourcePoint" />
            <mxPoint x="650.75" y="469" as="targetPoint" />
          </mxGeometry>
        </mxCell>
        <mxCell id="g5uCLun-pcc5QEBChkIE-50" value="&amp;lt;&amp;lt;extend&amp;gt;&amp;gt;" style="edgeLabel;html=1;align=center;verticalAlign=middle;resizable=0;points=[];rotation=0;labelBackgroundColor=none;" parent="g5uCLun-pcc5QEBChkIE-49" vertex="1" connectable="0">
          <mxGeometry x="-0.2426" y="-1" relative="1" as="geometry">
            <mxPoint x="5" y="21" as="offset" />
          </mxGeometry>
        </mxCell>
        <mxCell id="g5uCLun-pcc5QEBChkIE-57" value="participate video meeting" style="ellipse;whiteSpace=wrap;html=1;verticalAlign=top;strokeWidth=2;fillColor=#dae8fc;strokeColor=#6c8ebf;" parent="1" vertex="1">
          <mxGeometry x="193" y="479" width="130" height="40" as="geometry" />
        </mxCell>
        <mxCell id="g5uCLun-pcc5QEBChkIE-58" value="" style="rounded=0;orthogonalLoop=1;jettySize=auto;html=1;endArrow=open;endFill=0;strokeWidth=1;fillColor=#dae8fc;strokeColor=#6c8ebf;exitX=1;exitY=0.3333333333333333;exitDx=0;exitDy=0;exitPerimeter=0;entryX=0;entryY=0.5;entryDx=0;entryDy=0;" parent="1" source="4s9nhKdhcSExY_lbLFu8-69" target="g5uCLun-pcc5QEBChkIE-57" edge="1">
          <mxGeometry relative="1" as="geometry">
            <mxPoint x="101.00000000000011" y="525.6666666666667" as="sourcePoint" />
            <mxPoint x="203" y="534.0000000000001" as="targetPoint" />
          </mxGeometry>
        </mxCell>
        <mxCell id="g5uCLun-pcc5QEBChkIE-60" value="" style="rounded=0;orthogonalLoop=1;jettySize=auto;html=1;endArrow=open;endFill=0;strokeWidth=1;fillColor=#dae8fc;strokeColor=#6c8ebf;exitX=1;exitY=0.3333333333333333;exitDx=0;exitDy=0;exitPerimeter=0;entryX=0;entryY=0.5;entryDx=0;entryDy=0;" parent="1" source="4s9nhKdhcSExY_lbLFu8-62" target="4s9nhKdhcSExY_lbLFu8-68" edge="1">
          <mxGeometry relative="1" as="geometry">
            <mxPoint x="101.00000000000011" y="525.6666666666667" as="sourcePoint" />
            <mxPoint x="200" y="498" as="targetPoint" />
            <Array as="points">
              <mxPoint x="111" y="496" />
            </Array>
          </mxGeometry>
        </mxCell>
        <mxCell id="g5uCLun-pcc5QEBChkIE-61" value="" style="rounded=0;orthogonalLoop=1;jettySize=auto;html=1;endArrow=open;endFill=0;strokeWidth=1;fillColor=#dae8fc;strokeColor=#6c8ebf;exitX=0.958;exitY=0.3;exitDx=0;exitDy=0;dashed=1;exitPerimeter=0;" parent="1" source="g5uCLun-pcc5QEBChkIE-57" edge="1">
          <mxGeometry relative="1" as="geometry">
            <mxPoint x="333" y="519.0000000000001" as="sourcePoint" />
            <mxPoint x="449" y="439" as="targetPoint" />
          </mxGeometry>
        </mxCell>
        <mxCell id="g5uCLun-pcc5QEBChkIE-62" value="&amp;lt;&amp;lt;include&amp;gt;&amp;gt;" style="edgeLabel;html=1;align=center;verticalAlign=middle;resizable=0;points=[];rotation=-20;" parent="g5uCLun-pcc5QEBChkIE-61" vertex="1" connectable="0">
          <mxGeometry x="-0.2426" y="-1" relative="1" as="geometry">
            <mxPoint x="-20" y="-4" as="offset" />
          </mxGeometry>
        </mxCell>
        <mxCell id="g5uCLun-pcc5QEBChkIE-65" value="" style="rounded=0;orthogonalLoop=1;jettySize=auto;html=1;endArrow=open;endFill=0;strokeWidth=1;fillColor=#dae8fc;strokeColor=#6c8ebf;exitX=0;exitY=0;exitDx=0;exitDy=0;dashed=1;entryX=0.638;entryY=1.041;entryDx=0;entryDy=0;entryPerimeter=0;" parent="1" source="4s9nhKdhcSExY_lbLFu8-112" target="4s9nhKdhcSExY_lbLFu8-162" edge="1">
          <mxGeometry relative="1" as="geometry">
            <mxPoint x="603.0000000000036" y="584.0000000000001" as="sourcePoint" />
            <mxPoint x="501.90544999999975" y="451.78" as="targetPoint" />
          </mxGeometry>
        </mxCell>
        <mxCell id="g5uCLun-pcc5QEBChkIE-66" value="&amp;lt;&amp;lt;include&amp;gt;&amp;gt;" style="edgeLabel;html=1;align=center;verticalAlign=middle;resizable=0;points=[];rotation=55;" parent="g5uCLun-pcc5QEBChkIE-65" vertex="1" connectable="0">
          <mxGeometry x="-0.2426" y="-1" relative="1" as="geometry">
            <mxPoint x="-4" y="8" as="offset" />
          </mxGeometry>
        </mxCell>
        <mxCell id="g5uCLun-pcc5QEBChkIE-67" value="" style="rounded=0;orthogonalLoop=1;jettySize=auto;html=1;endArrow=open;endFill=0;strokeWidth=1;fillColor=#dae8fc;strokeColor=#6c8ebf;exitX=0.017;exitY=0.664;exitDx=0;exitDy=0;dashed=1;entryX=0.936;entryY=0.214;entryDx=0;entryDy=0;exitPerimeter=0;entryPerimeter=0;" parent="1" source="4s9nhKdhcSExY_lbLFu8-77" target="4s9nhKdhcSExY_lbLFu8-162" edge="1">
          <mxGeometry relative="1" as="geometry">
            <mxPoint x="656.4999999999998" y="288.9999999999999" as="sourcePoint" />
            <mxPoint x="513.2816525419487" y="428.5804438003348" as="targetPoint" />
          </mxGeometry>
        </mxCell>
        <mxCell id="g5uCLun-pcc5QEBChkIE-68" value="&amp;lt;&amp;lt;include&amp;gt;&amp;gt;" style="edgeLabel;html=1;align=center;verticalAlign=middle;resizable=0;points=[];rotation=-30;labelBackgroundColor=none;" parent="g5uCLun-pcc5QEBChkIE-67" vertex="1" connectable="0">
          <mxGeometry x="-0.2426" y="-1" relative="1" as="geometry">
            <mxPoint x="-10" y="14" as="offset" />
          </mxGeometry>
        </mxCell>
        <mxCell id="ZNUOaFlYn_tH-IJOiUoC-1" value="add appointment" style="ellipse;whiteSpace=wrap;html=1;verticalAlign=top;strokeWidth=2;fillColor=#dae8fc;strokeColor=#6c8ebf;" parent="1" vertex="1">
          <mxGeometry x="192" y="390" width="130" height="30" as="geometry" />
        </mxCell>
        <mxCell id="ZNUOaFlYn_tH-IJOiUoC-2" value="" style="rounded=0;orthogonalLoop=1;jettySize=auto;html=1;endArrow=open;endFill=0;strokeWidth=1;fillColor=#dae8fc;strokeColor=#6c8ebf;exitX=1;exitY=0.5;exitDx=0;exitDy=0;dashed=1;" parent="1" source="ZNUOaFlYn_tH-IJOiUoC-1" edge="1">
          <mxGeometry relative="1" as="geometry">
            <mxPoint x="333" y="519" as="sourcePoint" />
            <mxPoint x="439" y="434" as="targetPoint" />
          </mxGeometry>
        </mxCell>
        <mxCell id="ZNUOaFlYn_tH-IJOiUoC-3" value="&amp;lt;&amp;lt;include&amp;gt;&amp;gt;" style="edgeLabel;html=1;align=center;verticalAlign=middle;resizable=0;points=[];rotation=15;" parent="ZNUOaFlYn_tH-IJOiUoC-2" vertex="1" connectable="0">
          <mxGeometry x="-0.2426" y="-1" relative="1" as="geometry">
            <mxPoint x="-9" y="-13" as="offset" />
          </mxGeometry>
        </mxCell>
        <mxCell id="ZNUOaFlYn_tH-IJOiUoC-6" value="" style="rounded=0;orthogonalLoop=1;jettySize=auto;html=1;endArrow=open;endFill=0;strokeWidth=1;fillColor=#dae8fc;strokeColor=#6c8ebf;exitX=1;exitY=0.3333333333333333;exitDx=0;exitDy=0;exitPerimeter=0;entryX=0.038;entryY=0.267;entryDx=0;entryDy=0;entryPerimeter=0;" parent="1" source="4s9nhKdhcSExY_lbLFu8-44" target="ZNUOaFlYn_tH-IJOiUoC-1" edge="1">
          <mxGeometry relative="1" as="geometry">
            <mxPoint x="105" y="302.66666666666663" as="sourcePoint" />
            <mxPoint x="192" y="455" as="targetPoint" />
          </mxGeometry>
        </mxCell>
        <mxCell id="tK_R5uiiRyiaRL2RAJiu-1" value="Doctor" style="shape=umlActor;verticalLabelPosition=bottom;verticalAlign=top;html=1;outlineConnect=0;strokeWidth=2;fillColor=#dae8fc;strokeColor=#6c8ebf;" vertex="1" parent="1">
          <mxGeometry x="104" y="363" width="40" height="80" as="geometry" />
        </mxCell>
        <mxCell id="tK_R5uiiRyiaRL2RAJiu-5" value="" style="rounded=0;orthogonalLoop=1;jettySize=auto;html=1;endArrow=open;endFill=0;strokeWidth=1;fillColor=#dae8fc;strokeColor=#6c8ebf;exitX=0;exitY=0.3333333333333333;exitDx=0;exitDy=0;exitPerimeter=0;entryX=1;entryY=0.5;entryDx=0;entryDy=0;" edge="1" parent="1" source="4s9nhKdhcSExY_lbLFu8-31" target="4s9nhKdhcSExY_lbLFu8-29">
          <mxGeometry relative="1" as="geometry">
            <mxPoint x="780" y="266.66666666666674" as="sourcePoint" />
            <mxPoint x="721.5000000000034" y="274" as="targetPoint" />
          </mxGeometry>
        </mxCell>
        <mxCell id="tK_R5uiiRyiaRL2RAJiu-12" value="" style="rounded=0;orthogonalLoop=1;jettySize=auto;html=1;endArrow=open;endFill=0;strokeWidth=1;fillColor=#dae8fc;strokeColor=#6c8ebf;exitX=1;exitY=0.3333333333333333;exitDx=0;exitDy=0;exitPerimeter=0;entryX=0;entryY=0.5;entryDx=0;entryDy=0;" edge="1" parent="1" source="4s9nhKdhcSExY_lbLFu8-44" target="g5uCLun-pcc5QEBChkIE-57">
          <mxGeometry relative="1" as="geometry">
            <mxPoint x="118" y="251.66666666666674" as="sourcePoint" />
            <mxPoint x="203" y="459" as="targetPoint" />
          </mxGeometry>
        </mxCell>
        <mxCell id="tK_R5uiiRyiaRL2RAJiu-13" value="" style="endArrow=block;html=1;rounded=0;exitX=0.5;exitY=0;exitDx=0;exitDy=0;exitPerimeter=0;endFill=0;fillColor=#dae8fc;strokeColor=#6c8ebf;" edge="1" parent="1" source="4s9nhKdhcSExY_lbLFu8-62">
          <mxGeometry width="50" height="50" relative="1" as="geometry">
            <mxPoint x="245" y="359" as="sourcePoint" />
            <mxPoint x="82" y="319" as="targetPoint" />
          </mxGeometry>
        </mxCell>
        <mxCell id="tK_R5uiiRyiaRL2RAJiu-14" value="" style="endArrow=block;html=1;rounded=0;exitX=0.5;exitY=0;exitDx=0;exitDy=0;exitPerimeter=0;endFill=0;fillColor=#dae8fc;strokeColor=#6c8ebf;" edge="1" parent="1" source="tK_R5uiiRyiaRL2RAJiu-1">
          <mxGeometry width="50" height="50" relative="1" as="geometry">
            <mxPoint x="73" y="374" as="sourcePoint" />
            <mxPoint x="91" y="318" as="targetPoint" />
          </mxGeometry>
        </mxCell>
      </root>
    </mxGraphModel>
  </diagram>
</mxfile>
